<?xml version="1.0" standalone="no"?>
<!DOCTYPE svg PUBLIC "-//W3C//DTD SVG 20010904//EN"
 "http://www.w3.org/TR/2001/REC-SVG-20010904/DTD/svg10.dtd">
<svg version="1.0" xmlns="http://www.w3.org/2000/svg"
 width="170.000000pt" height="170.000000pt" viewBox="0 0 170.000000 170.000000"
 preserveAspectRatio="xMidYMid meet">
<metadata>
Created by potrace 1.11, written by Peter Selinger 2001-2013
</metadata>
<g transform="translate(0.000000,170.000000) scale(0.100000,-0.100000)"
fill="#000000" stroke="none">
<path d="M81 1312 c-39 -59 -71 -111 -71 -116 0 -4 24 -33 54 -64 30 -32 63
-67 74 -79 10 -13 57 -64 104 -115 47 -51 96 -105 109 -119 13 -14 67 -72 119
-129 52 -57 102 -111 111 -121 14 -16 107 -117 232 -253 l38 -41 41 45 c41 46
98 107 198 215 30 33 93 102 140 154 47 51 96 105 110 120 14 14 70 75 125
135 125 137 120 132 179 195 46 49 48 53 36 81 -7 17 -16 30 -21 30 -5 0 -9 7
-9 15 0 8 -4 15 -10 15 -5 0 -10 4 -10 9 0 9 -79 131 -84 131 -2 0 -36 -49
-76 -110 l-73 -110 -547 0 -547 0 -73 110 c-40 61 -74 110 -75 110 -1 0 -34
-49 -74 -108z"/>
</g>
</svg>
